HIERARCHY
ROOT mixamorig_Hips
{
	OFFSET 0.000000 0.890477 -0.000138
	CHANNELS 6 Xposition Yposition Zposition Xrotation Yrotation Zrotation
	JOINT mixamorig_RightUpLeg
	{
		OFFSET -8.224193 -6.337456 -1.245509
		CHANNELS 3 Xrotation Yrotation Zrotation
		JOINT mixamorig_RightLeg
		{
			OFFSET -0.853740 -41.205795 -1.113445
			CHANNELS 3 Xrotation Yrotation Zrotation
			JOINT mixamorig_RightFoot
			{
				OFFSET 0.305346 -37.074059 5.547482
				CHANNELS 3 Xrotation Yrotation Zrotation
				JOINT mixamorig_RightToeBase
				{
					OFFSET 0.275999 -7.386046 -10.162342
					CHANNELS 3 Xrotation Yrotation Zrotation
					End Site
					{
						OFFSET 1.527623 -0.641087 -9.418583
					}
				}
			}
		}
	}
	JOINT mixamorig_LeftUpLeg
	{
		OFFSET 8.238425 -6.144493 -1.530489
		CHANNELS 3 Xrotation Yrotation Zrotation
		JOINT mixamorig_LeftLeg
		{
			OFFSET 0.999181 -40.793915 0.038145
			CHANNELS 3 Xrotation Yrotation Zrotation
			JOINT mixamorig_LeftFoot
			{
				OFFSET -1.148513 -38.134243 4.265069
				CHANNELS 3 Xrotation Yrotation Zrotation
				JOINT mixamorig_LeftToeBase
				{
					OFFSET -0.465251 -6.961702 -10.249644
					CHANNELS 3 Xrotation Yrotation Zrotation
					End Site
					{
						OFFSET -0.959344 -0.686551 -9.361076
					}
				}
			}
		}
	}
	JOINT mixamorig_Spine
	{
		OFFSET -0.012521 9.659492 0.152576
		CHANNELS 3 Xrotation Yrotation Zrotation
		JOINT mixamorig_Spine1
		{
			OFFSET 0.013316 9.940590 -0.620916
			CHANNELS 3 Xrotation Yrotation Zrotation
			JOINT mixamorig_Spine2
			{
				OFFSET -0.024142 10.082199 -0.544315
				CHANNELS 3 Xrotation Yrotation Zrotation
				JOINT mixamorig_Neck
				{
					OFFSET -0.280692 18.101685 -1.792333
					CHANNELS 3 Xrotation Yrotation Zrotation
					JOINT mixamorig_Head
					{
						OFFSET -0.018573 9.067642 0.460133
						CHANNELS 3 Xrotation Yrotation Zrotation
						End Site
						{
							OFFSET 0.158257 16.422226 3.010605
						}
					}
				}
				JOINT mixamorig_RightShoulder
				{
					OFFSET -4.418977 12.360168 -1.870196
					CHANNELS 3 Xrotation Yrotation Zrotation
					JOINT mixamorig_RightArm
					{
						OFFSET -0.840364 -0.706100 9.418602
						CHANNELS 3 Xrotation Yrotation Zrotation
						JOINT mixamorig_RightForeArm
						{
							OFFSET -2.498498 0.041534 25.943676
							CHANNELS 3 Xrotation Yrotation Zrotation
							JOINT mixamorig_RightHand
							{
								OFFSET -2.575367 0.795197 26.809452
								CHANNELS 3 Xrotation Yrotation Zrotation
								JOINT mixamorig_RightHandIndex1
								{
									OFFSET 3.136251 -0.538528 8.955254
									CHANNELS 3 Xrotation Yrotation Zrotation
									JOINT mixamorig_RightHandIndex2
									{
										OFFSET 0.051750 0.018234 3.880755
										CHANNELS 3 Xrotation Yrotation Zrotation
										JOINT mixamorig_RightHandIndex3
										{
											OFFSET 0.159386 -0.111511 2.528431
											CHANNELS 3 Xrotation Yrotation Zrotation
											End Site
											{
												OFFSET -0.186133 -0.129547 2.317834
											}
										}
									}
								}
								JOINT mixamorig_RightHandThumb1
								{
									OFFSET 3.146857 -1.651413 2.139514
									CHANNELS 3 Xrotation Yrotation Zrotation
									JOINT mixamorig_RightHandThumb2
									{
										OFFSET 0.227379 -1.950211 3.563250
										CHANNELS 3 Xrotation Yrotation Zrotation
										JOINT mixamorig_RightHandThumb3
										{
											OFFSET -0.284211 -0.956070 2.684949
											CHANNELS 3 Xrotation Yrotation Zrotation
											End Site
											{
												OFFSET -0.050027 -1.039322 2.580839
											}
										}
									}
								}
								JOINT mixamorig_RightHandMiddle1
								{
									OFFSET 0.842868 0.059799 9.204017
									CHANNELS 3 Xrotation Yrotation Zrotation
									JOINT mixamorig_RightHandMiddle2
									{
										OFFSET 0.007599 0.118408 3.598334
										CHANNELS 3 Xrotation Yrotation Zrotation
										JOINT mixamorig_RightHandMiddle3
										{
											OFFSET -0.157197 -0.125458 2.928855
											CHANNELS 3 Xrotation Yrotation Zrotation
											End Site
											{
												OFFSET 0.172696 -0.014359 2.626183
											}
										}
									}
								}
								JOINT mixamorig_RightHandRing1
								{
									OFFSET -1.001290 0.004471 8.712891
									CHANNELS 3 Xrotation Yrotation Zrotation
									JOINT mixamorig_RightHandRing2
									{
										OFFSET -0.114342 0.268219 2.619466
										CHANNELS 3 Xrotation Yrotation Zrotation
										JOINT mixamorig_RightHandRing3
										{
											OFFSET 0.155752 0.013962 2.934787
											CHANNELS 3 Xrotation Yrotation Zrotation
											End Site
											{
												OFFSET -0.022682 -0.334305 2.395091
											}
										}
									}
								}
								JOINT mixamorig_RightHandPinky1
								{
									OFFSET -2.870745 -0.520309 8.239086
									CHANNELS 3 Xrotation Yrotation Zrotation
									JOINT mixamorig_RightHandPinky2
									{
										OFFSET -0.064124 0.097565 3.353874
										CHANNELS 3 Xrotation Yrotation Zrotation
										JOINT mixamorig_RightHandPinky3
										{
											OFFSET 0.054191 -0.056305 1.657426
											CHANNELS 3 Xrotation Yrotation Zrotation
											End Site
											{
												OFFSET 0.034473 0.045517 1.902615
											}
										}
									}
								}
							}
						}
					}
				}
				JOINT mixamorig_LeftShoulder
				{
					OFFSET 4.067368 12.365417 -1.818083
					CHANNELS 3 Xrotation Yrotation Zrotation
					JOINT mixamorig_LeftArm
					{
						OFFSET 0.880652 -0.717896 9.769979
						CHANNELS 3 Xrotation Yrotation Zrotation
						JOINT mixamorig_LeftForeArm
						{
							OFFSET 2.551281 -0.093887 25.986422
							CHANNELS 3 Xrotation Yrotation Zrotation
							JOINT mixamorig_LeftHand
							{
								OFFSET 2.550158 0.834869 25.953165
								CHANNELS 3 Xrotation Yrotation Zrotation
								JOINT mixamorig_LeftHandIndex1
								{
									OFFSET -3.091449 -0.508453 8.774550
									CHANNELS 3 Xrotation Yrotation Zrotation
									JOINT mixamorig_LeftHandIndex2
									{
										OFFSET 0.036697 0.078873 3.768008
										CHANNELS 3 Xrotation Yrotation Zrotation
										JOINT mixamorig_LeftHandIndex3
										{
											OFFSET -0.146443 -0.119202 2.548758
											CHANNELS 3 Xrotation Yrotation Zrotation
											End Site
											{
												OFFSET 0.171421 0.029297 2.617404
											}
										}
									}
								}
								JOINT mixamorig_LeftHandThumb1
								{
									OFFSET -3.148789 -1.646713 2.206965
									CHANNELS 3 Xrotation Yrotation Zrotation
									JOINT mixamorig_LeftHandThumb2
									{
										OFFSET 0.080562 -1.997971 3.556270
										CHANNELS 3 Xrotation Yrotation Zrotation
										JOINT mixamorig_LeftHandThumb3
										{
											OFFSET 0.511188 -1.178329 2.869402
											CHANNELS 3 Xrotation Yrotation Zrotation
											End Site
											{
												OFFSET -0.395684 -1.027771 2.132432
											}
										}
									}
								}
								JOINT mixamorig_LeftHandMiddle1
								{
									OFFSET -0.779669 -0.015396 9.112029
									CHANNELS 3 Xrotation Yrotation Zrotation
									JOINT mixamorig_LeftHandMiddle2
									{
										OFFSET 0.052194 -0.112549 3.389368
										CHANNELS 3 Xrotation Yrotation Zrotation
										JOINT mixamorig_LeftHandMiddle3
										{
											OFFSET 0.178288 -0.162537 3.259809
											CHANNELS 3 Xrotation Yrotation Zrotation
											End Site
											{
												OFFSET -0.168278 0.311600 2.538658
											}
										}
									}
								}
								JOINT mixamorig_LeftHandRing1
								{
									OFFSET 1.087882 0.018982 8.604859
									CHANNELS 3 Xrotation Yrotation Zrotation
									JOINT mixamorig_LeftHandRing2
									{
										OFFSET 0.149309 0.141083 2.758817
										CHANNELS 3 Xrotation Yrotation Zrotation
										JOINT mixamorig_LeftHandRing3
										{
											OFFSET -0.068528 -0.036240 2.975783
											CHANNELS 3 Xrotation Yrotation Zrotation
											End Site
											{
												OFFSET -0.030775 -0.086090 2.514544
											}
										}
									}
								}
								JOINT mixamorig_LeftHandPinky1
								{
									OFFSET 2.960986 -0.570038 8.064888
									CHANNELS 3 Xrotation Yrotation Zrotation
									JOINT mixamorig_LeftHandPinky2
									{
										OFFSET 0.094121 0.094238 2.893586
										CHANNELS 3 Xrotation Yrotation Zrotation
										JOINT mixamorig_LeftHandPinky3
										{
											OFFSET -0.031188 0.050095 1.974020
											CHANNELS 3 Xrotation Yrotation Zrotation
											End Site
											{
												OFFSET -0.027014 0.187729 1.913422
											}
										}
									}
								}
							}
						}
					}
				}
			}
		}
	}
}
MOTION
Frames: 4
Frame Time: 0.03333333333333333
7.017505 9.726013 -2.449604 0.000000 0.890477 -0.000138 168.611153 77.024223 159.822079 -60.238144 52.841460 59.765070 -11.681294 10.028606 9.281643 -4.779454 1.834137 -2.623628 -24.677873 3.175906 2.115173 -129.299876 -35.694175 -179.167564 -7.122640 -31.325211 -13.069537 0.527254 0.469895 2.417324 9.893078 -2.069139 7.187040 6.998471 -2.217340 4.107947 7.702713 -1.422614 3.738697 17.623100 0.770567 2.827694 23.416286 -8.019373 7.026298 121.382730 -74.461939 120.248545 44.750087 26.915875 31.034691 163.943960 68.148419 -172.520196 -17.366110 -1.419998 0.789457 3.277730 4.403523 -2.883126 22.692954 -3.062987 -1.266487 7.534622 -0.319378 -0.889064 -6.333147 13.083953 -5.000974 -5.780214 -1.855525 -0.142640 -7.436832 -8.966491 2.837463 14.169926 1.393717 -0.279747 23.892978 -3.170312 -2.137943 4.856110 0.306136 0.853387 6.732778 0.145545 0.042354 18.274397 -2.020430 -0.647541 27.195248 -1.157893 -0.555260 -3.945408 -10.964677 0.176570 7.356245 -2.602589 -1.537208 10.097841 -0.452773 -1.062656 31.615895 83.222609 -26.734040 33.164988 -8.790373 -22.897404 167.947405 -53.944029 179.249400 -34.347055 -13.810349 -34.187069 20.513575 -7.146999 3.999801 25.225058 3.380796 1.585660 -0.032908 0.341235 0.306634 -14.537262 -25.442260 -6.194987 -2.325593 -2.947777 0.169582 4.474939 -10.027204 -0.274613 15.217178 -1.271937 2.232731 33.874065 4.872907 -0.932399 12.402711 2.140549 0.345533 15.276847 2.070124 3.784015 18.758355 3.769091 0.853320 34.489537 2.155654 0.103852 10.167590 13.622719 1.882824 8.904499 0.959278 1.297596 20.053040 2.803905 0.060261 
6.671877 9.798986 -2.108341 0.000000 0.890477 -0.000138 164.757765 76.940106 163.102363 -60.593276 51.402483 60.209186 -11.467691 10.940121 8.943319 -5.511730 1.811326 -2.880455 -24.889284 3.137473 1.933185 -128.644159 -35.155647 -179.395545 -6.802642 -31.808795 -13.122887 0.674147 0.533304 2.199961 10.384871 -1.909390 7.416292 6.866543 -2.369005 3.888698 7.644114 -1.555866 3.553324 17.979857 0.923226 3.085999 23.652171 -7.598339 7.106262 121.642320 -74.543032 120.405459 44.892737 26.934916 31.087517 163.943960 68.148419 -172.520196 -16.461228 -2.092916 0.180154 3.170480 4.517158 -2.405432 21.541955 -2.978186 -1.125642 8.081272 -0.331607 -0.958547 -5.740512 13.417554 -4.510799 -5.859890 -2.028711 -0.266257 -7.829123 -9.550787 2.624452 14.905346 1.351971 -0.372852 22.688112 -3.133664 -2.134741 5.578507 0.287234 0.823651 7.461700 0.381743 -0.009746 18.444211 -2.085413 -0.619979 27.153037 -1.148948 -0.567152 -1.902583 -10.247875 0.250473 8.517937 -2.716303 -1.583538 10.534037 -0.531565 -1.127291 32.229281 83.403816 -27.302176 32.109343 -9.296556 -23.864607 167.672261 -54.933872 179.217758 -32.899532 -14.128472 -34.620462 20.908103 -6.796977 3.871839 24.948247 3.351376 1.558368 0.184217 0.428848 0.272208 -13.769251 -25.816378 -5.245403 -2.133956 -3.194018 0.076600 4.181351 -9.698971 -0.297694 15.633520 -1.286511 2.322105 33.923782 4.846371 -0.899213 12.689588 2.232498 0.309483 15.806026 2.079929 3.842044 19.701020 3.908252 0.885374 34.798837 2.189176 0.093667 10.943470 13.273802 1.972565 9.950868 0.892906 1.293890 20.473670 2.832519 -0.016933 
6.623518 9.999419 -1.593866 0.000000 0.890477 -0.000138 160.072886 76.255911 166.378245 -61.197711 49.275729 61.162004 -10.740761 12.291000 8.488422 -6.260868 1.765970 -2.966841 -25.806094 3.219645 1.905991 -127.649048 -34.301892 -179.756937 -5.831065 -32.551567 -12.650064 1.226111 0.655055 1.716302 11.665689 -2.045295 7.676112 6.677317 -2.550443 3.464030 7.536125 -1.714306 3.187601 18.876008 1.176873 3.094983 23.736864 -6.799132 6.760169 121.545300 -75.161683 120.096433 45.035336 26.954037 31.140258 163.943960 68.148419 -172.520196 -13.862479 -3.207660 -0.587055 2.598904 4.732775 -1.645557 20.279489 -2.870935 -0.985222 8.850565 -0.338360 -1.022095 -4.863827 14.097481 -4.155669 -5.925808 -2.525954 -0.339845 -8.651047 -10.675286 2.209551 15.968927 1.273518 -0.524942 21.340958 -3.115324 -2.165108 6.556541 0.346713 0.746877 8.702207 0.830013 -0.101243 18.982847 -2.133424 -0.548256 27.188990 -1.056011 -0.569948 1.217195 -9.207620 0.209978 10.375247 -2.855184 -1.599619 11.213570 -0.605750 -1.186527 30.839047 83.397034 -25.792422 30.587344 -10.432788 -24.522380 166.561471 -57.070957 178.742269 -30.041017 -15.114950 -34.796044 21.528938 -6.265232 3.682051 24.896078 3.349419 1.557704 0.195050 0.569632 0.149606 -12.584136 -26.818033 -3.204163 -1.831942 -3.246772 -0.287978 3.920823 -9.359203 -0.471407 16.396306 -1.229474 2.487841 34.340273 4.782337 -0.866182 13.137722 2.348995 0.230405 17.053638 2.157801 3.868457 21.349925 4.133607 0.902604 35.341425 2.243960 0.060159 12.776753 12.696526 2.187326 11.864721 0.865379 1.292484 21.446764 2.883376 -0.135865 
6.752817 10.023946 -1.205550 0.000000 0.890477 -0.000138 158.537502 75.600784 166.987589 -61.262505 48.147029 61.398642 -10.093907 13.016176 8.500265 -6.354006 1.724798 -2.828040 -26.406085 3.474464 2.047062 -127.253095 -33.913006 179.949785 -5.232164 -33.040333 -12.227075 1.567887 0.757254 1.440401 12.325971 -2.212639 7.852503 6.605821 -2.595955 3.129601 7.459980 -1.712674 2.934311 19.247219 1.277497 2.918232 23.700763 -6.255601 6.549528 121.031078 -75.615898 119.407674 45.177882 26.973238 31.192913 163.943960 68.148419 -172.520196 -12.038142 -3.961704 -0.890140 2.251353 4.871981 -1.178951 19.745041 -2.790418 -0.930934 9.164315 -0.318303 -1.018706 -4.243480 14.810207 -4.324826 -5.879754 -2.804976 -0.223057 -9.099372 -11.321076 2.050407 16.492063 1.216591 -0.592731 20.874017 -3.127041 -2.202753 6.996159 0.403256 0.655985 9.523526 1.092171 -0.177111 19.633974 -2.173960 -0.478188 27.252439 -0.939481 -0.556666 3.223387 -8.662366 0.151316 11.754796 -2.909221 -1.564714 11.617249 -0.636076 -1.217114 29.137284 83.335413 -24.037137 29.843028 -11.157385 -24.538053 165.530223 -59.068331 177.945838 -28.239155 -15.813374 -34.862818 21.805900 -5.959743 3.542657 24.980022 3.372307 1.552666 0.138497 0.663172 0.051846 -11.793898 -27.638140 -1.605016 -1.923603 -3.401211 -0.822693 4.048045 -9.560341 -0.738693 16.969001 -1.155916 2.584564 34.683062 4.740823 -0.840096 13.397944 2.397013 0.193887 18.169598 2.234689 3.837854 22.393475 4.279423 0.889844 35.536705 2.251956 0.058067 14.088914 12.253096 2.380303 13.146321 0.828754 1.291303 22.131792 2.919614 -0.181609 
